<svg width="47" height="47" viewBox="0 0 47 47" fill="none" xmlns="http://www.w3.org/2000/svg">
<rect width="45" height="45" fill="black" fill-opacity="0" transform="translate(1 1)"/>
<path d="M23.6063 1.5068C20.5664 0.776506 17.3902 0.836351 14.3799 1.68064C11.3697 2.52493 8.62556 4.12556 6.40873 6.33022C4.19191 8.53487 2.57613 11.2702 1.71518 14.2758C0.854234 17.2815 0.776757 20.4575 1.49013 23.5016C2.43037 19.4778 4.70384 15.8904 7.94099 13.3224C11.1781 10.7544 15.1886 9.35676 19.3206 9.35676C23.4526 9.35676 27.4631 10.7544 30.7002 13.3224C33.9374 15.8904 36.2109 19.4778 37.1511 23.5016C38.2536 18.7898 37.4483 13.8332 34.9109 9.71291C32.3736 5.59256 28.3099 2.64274 23.6063 1.5068Z" fill="white" stroke="#333333" stroke-width="2" stroke-miterlimit="10"/>
<path d="M23.6069 1.50678C27.623 2.4742 31.1943 4.77059 33.7411 8.02323C36.2879 11.2759 37.6607 15.2938 37.6367 19.4249C37.6127 23.556 36.1933 27.5577 33.6089 30.7805C31.0245 34.0034 27.4267 36.2581 23.3997 37.1788C26.0809 37.8206 28.8724 37.8486 31.5659 37.2609C34.2595 36.6731 36.7856 35.4846 38.9557 33.7841C41.1258 32.0837 42.8839 29.9151 44.0989 27.4402C45.3139 24.9653 45.9544 22.248 45.9726 19.491C45.9908 16.734 45.3863 14.0085 44.204 11.5178C43.0218 9.02709 41.2924 6.8355 39.145 5.10653C36.9975 3.37756 34.4873 2.15585 31.8018 1.53255C29.1162 0.909245 26.3246 0.900438 23.6351 1.50678H23.6069Z" fill="white" stroke="#333333" stroke-width="2" stroke-miterlimit="10"/>
<path d="M40.5895 32.3183C38.2855 34.6226 35.4084 36.2704 32.2551 37.0915C29.1018 37.9126 25.7864 37.8774 22.6513 36.9894C19.5161 36.1014 16.6747 34.3928 14.4202 32.04C12.1658 29.6873 10.58 26.7755 9.82648 23.6052C9.22016 26.2947 9.22897 29.0865 9.85225 31.7722C10.4755 34.4579 11.6972 36.9681 13.4261 39.1157C15.155 41.2633 17.3464 42.9927 19.837 44.175C22.3276 45.3573 25.053 45.9618 27.8099 45.9436C30.5668 45.9254 33.284 45.2849 35.7588 44.0699C38.2335 42.8548 40.402 41.0966 42.1024 38.9264C43.8028 36.7562 44.9912 34.23 45.5789 31.5363C46.1667 28.8426 46.1387 26.051 45.4969 23.3697C44.7461 26.7588 43.0436 29.8633 40.5895 32.3183Z" fill="white" stroke="#333333" stroke-width="2" stroke-miterlimit="10"/>
<path d="M11.2112 11.2655C7.18188 13.2529 4.02383 16.6524 2.33799 20.8171C0.652144 24.9817 0.556185 29.6209 2.06837 33.8517C3.58055 38.0825 6.59532 41.6097 10.539 43.762C14.4827 45.9144 19.08 46.5417 23.4561 45.5246C19.4392 44.5766 15.8601 42.2999 13.2987 39.0636C10.7373 35.8272 9.34374 31.8207 9.34374 27.6933C9.34374 23.5659 10.7373 19.5594 13.2987 16.323C15.8601 13.0866 19.4392 10.81 23.4561 9.86199C19.3347 8.90547 15.0094 9.40124 11.2112 11.2655Z" fill="white" stroke="#333333" stroke-width="2" stroke-miterlimit="10"/>
</svg>
