<svg width="32" height="32" viewBox="0 0 32 32" fill="none" xmlns="http://www.w3.org/2000/svg">
<rect width="30" height="30" fill="black" fill-opacity="0" transform="translate(1 1)"/>
<path d="M16.071 1.33787C14.0444 0.851004 11.9269 0.890901 9.92004 1.45376C7.9132 2.01662 6.08379 3.08371 4.6059 4.55348C3.12802 6.02325 2.05084 7.84679 1.47687 9.85056C0.902904 11.8543 0.851253 13.9717 1.32683 16.001C1.95366 13.3185 3.46931 10.9269 5.62741 9.2149C7.78551 7.5029 10.4592 6.57117 13.2138 6.57117C15.9685 6.57117 18.6421 7.5029 20.8002 9.2149C22.9583 10.9269 24.474 13.3185 25.1008 16.001C25.8358 12.8599 25.299 9.5555 23.6074 6.8086C21.9158 4.06171 19.2067 2.09516 16.071 1.33787V1.33787Z" fill="#212121" stroke="white" stroke-miterlimit="10"/>
<path d="M16.0713 1.33786C18.7487 1.9828 21.1295 3.51373 22.8274 5.68215C24.5253 7.85058 25.4405 10.5292 25.4245 13.2833C25.4085 16.0373 24.4622 18.7051 22.7392 20.8537C21.0163 23.0022 18.6178 24.5054 15.9331 25.1192C17.7206 25.5471 19.5816 25.5658 21.3773 25.1739C23.173 24.782 24.857 23.9897 26.3038 22.8561C27.7505 21.7225 28.9226 20.2767 29.7326 18.6268C30.5426 16.9769 30.9696 15.1654 30.9817 13.3274C30.9939 11.4894 30.5908 9.67234 29.8027 8.01186C29.0145 6.35139 27.8616 4.89033 26.43 3.73769C24.9983 2.58504 23.3249 1.77057 21.5345 1.35503C19.7441 0.939497 17.8831 0.933625 16.0901 1.33786H16.0713Z" fill="#212121" stroke="white" stroke-miterlimit="10"/>
<path d="M27.393 21.8789C25.857 23.4151 23.9389 24.5136 21.8367 25.061C19.7345 25.6084 17.5243 25.5849 15.4342 24.9929C13.3441 24.4009 11.4498 23.2619 9.94683 21.6934C8.44386 20.1248 7.38666 18.1836 6.88432 16.0701C6.48011 17.8632 6.48598 19.7243 6.9015 21.5148C7.31701 23.3052 8.13145 24.9788 9.28404 26.4105C10.4366 27.8422 11.8976 28.9951 13.558 29.7833C15.2184 30.5715 17.0354 30.9746 18.8733 30.9624C20.7112 30.9503 22.5227 30.5233 24.1725 29.7132C25.8223 28.9032 27.268 27.7311 28.4016 26.2843C29.5352 24.8374 30.3274 23.1533 30.7193 21.3575C31.1111 19.5618 31.0924 17.7007 30.6646 15.9131C30.1641 18.1726 29.0291 20.2422 27.393 21.8789Z" fill="#212121" stroke="white" stroke-miterlimit="10"/>
<path d="M7.80746 7.84367C5.12125 9.16862 3.01588 11.4349 1.89199 14.2114C0.768096 16.9878 0.704123 20.0806 1.71224 22.9011C2.72037 25.7217 4.73022 28.0731 7.35933 29.508C9.98845 30.9429 13.0533 31.3611 15.9707 30.6831C13.2928 30.051 10.9068 28.5333 9.19916 26.3757C7.49156 24.2181 6.56249 21.5471 6.56249 18.7955C6.56249 16.0439 7.49156 13.3729 9.19916 11.2153C10.9068 9.05776 13.2928 7.54 15.9707 6.90799C13.2231 6.27031 10.3396 6.60083 7.80746 7.84367V7.84367Z" fill="#212121" stroke="white" stroke-miterlimit="10"/>
</svg>
